HIERARCHY
ROOT Hips
{
    OFFSET 0.000000 0.000000 0.000000
    CHANNELS 6 Xposition Yposition Zposition Zrotation Xrotation Yrotation
    JOINT Spine
    {
        OFFSET -0.000000 8.267054 0.000000
        CHANNELS 3 Zrotation Xrotation Yrotation
        JOINT Spine1
        {
            OFFSET -0.000000 23.684998 0.000000
            CHANNELS 3 Zrotation Xrotation Yrotation
            JOINT Neck
            {
                OFFSET -0.000000 23.587730 2.144339
                CHANNELS 3 Zrotation Xrotation Yrotation
                JOINT Head
                {
                    OFFSET -0.000000 14.114483 -2.016355
                    CHANNELS 3 Zrotation Xrotation Yrotation
                    End Site
                    {
                        OFFSET -0.000000 25.204432 0.000000
                    }
                }
            }
            JOINT LeftShoulder
            {
                OFFSET 4.070090 22.062094 -0.247321
                CHANNELS 3 Zrotation Xrotation Yrotation
                JOINT LeftArm
                {
                    OFFSET 10.395479 0.000000 0.000000
                    CHANNELS 3 Zrotation Xrotation Yrotation
                    JOINT LeftForeArm
                    {
                        OFFSET 37.713577 0.000000 0.000000
                        CHANNELS 3 Zrotation Xrotation Yrotation
                        JOINT LeftHand
                        {
                            OFFSET 20.284107 0.000000 0.000000
                            CHANNELS 3 Zrotation Xrotation Yrotation
                            End Site
                            {
                                OFFSET 15.122660 0.000000 0.000000
                            }
                        }
                    }
                }
            }
            JOINT RightShoulder
            {
                OFFSET -3.979272 22.062094 -0.247321
                CHANNELS 3 Zrotation Xrotation Yrotation
                JOINT RightArm
                {
                    OFFSET -10.395479 0.000000 0.000000
                    CHANNELS 3 Zrotation Xrotation Yrotation
                    JOINT RightForeArm
                    {
                        OFFSET -37.713577 0.000000 0.000000
                        CHANNELS 3 Zrotation Xrotation Yrotation
                        JOINT RightHand
                        {
                            OFFSET -20.284107 0.000000 0.000000
                            CHANNELS 3 Zrotation Xrotation Yrotation
                            End Site
                            {
                                OFFSET -15.122660 0.000000 0.000000
                            }
                        }
                    }
                }
            }
        }
    }
    JOINT LeftUpLeg
    {
        OFFSET 10.081773 0.000000 0.000000
        CHANNELS 3 Zrotation Xrotation Yrotation
        JOINT LeftLeg
        {
            OFFSET -0.000000 -36.382099 0.000000
            CHANNELS 3 Zrotation Xrotation Yrotation
            JOINT LeftFoot
            {
                OFFSET -0.000000 -49.182560 0.000000
                CHANNELS 3 Zrotation Xrotation Yrotation
                JOINT LeftToeBase
                {
                    OFFSET -0.000000 -6.553152 15.122660
                    CHANNELS 3 Zrotation Xrotation Yrotation
                    End Site
                    {
                        OFFSET -0.000000 0.000000 4.032709
                    }
                }
            }
        }
    }
    JOINT RightUpLeg
    {
        OFFSET -10.081773 0.000000 0.000000
        CHANNELS 3 Zrotation Xrotation Yrotation
        JOINT RightLeg
        {
            OFFSET -0.000000 -36.382099 0.000000
            CHANNELS 3 Zrotation Xrotation Yrotation
            JOINT RightFoot
            {
                OFFSET -0.000000 -49.182560 0.000000
                CHANNELS 3 Zrotation Xrotation Yrotation
                JOINT RightToeBase
                {
                    OFFSET -0.000000 -6.553152 15.122660
                    CHANNELS 3 Zrotation Xrotation Yrotation
                    End Site
                    {
                        OFFSET -0.000000 0.000000 4.032709
                    }
                }
            }
        }
    }
}
MOTION
Frames:    10
Frame Time:    0.008333
-35.745445    94.291351    -126.162613    1.392475    3.333093    2.070758    -2.687224    -6.905534    0.472043    1.421426    -7.352297    0.725622    -3.832502    19.928684    -14.354327    16.210337    1.723084    -13.056498    13.509442    -1.722627    -7.471374    -27.421553    8.246510    -10.806783    0.370532    -0.966988    1.129899    12.853793    -0.368719    5.339701    -12.081564    -2.799625    -3.034399    29.854424    7.121748    9.764030    -1.633631    -1.608828    2.990977    -13.862996    -1.168028    -3.275570    -3.531313    -5.139536    4.055912    2.190142    13.930885    4.073105    0.612151    -9.706181    -4.342003    0.000000    0.000000    0.000000    -1.480212    -3.108546    -0.767316    0.838190    10.051163    5.160718    -1.645844    -7.725807    -9.093431    0.000000    0.000000    0.000000    
-35.746387    94.289360    -126.147041    1.391535    3.328335    2.057513    -2.686950    -6.919434    0.473580    1.419947    -7.330231    0.727126    -3.832548    19.924288    -14.355672    16.219391    1.765127    -13.062540    13.510179    -1.732020    -7.473198    -27.431219    8.229980    -10.777874    0.382641    -0.967026    1.128117    12.882424    -0.365497    5.358180    -12.086938    -2.798251    -3.035477    29.854874    7.095496    9.759350    -1.625613    -1.596247    2.976711    -13.882517    -1.157670    -3.255627    -3.530921    -5.133131    4.077521    2.199739    13.944999    4.069508    0.602477    -9.717314    -4.352578    0.000000    0.000000    0.000000    -1.478141    -3.097340    -0.751369    0.842183    10.055057    5.140409    -1.650280    -7.737005    -9.084570    0.000000    0.000000    0.000000    
-35.747307    94.287323    -126.131454    1.390658    3.323782    2.043467    -2.686502    -6.933647    0.475347    1.418099    -7.308256    0.728685    -3.831867    19.919800    -14.356438    16.226938    1.807485    -13.068192    13.511027    -1.740690    -7.473963    -27.439861    8.208911    -10.750611    0.391645    -0.966330    1.128911    12.912593    -0.361519    5.375156    -12.092687    -2.797086    -3.035639    29.856522    7.065640    9.754233    -1.616589    -1.582267    2.961868    -13.905107    -1.146007    -3.235168    -3.530190    -5.126924    4.100963    2.208806    13.958996    4.065830    0.593614    -9.728456    -4.363932    0.000000    0.000000    0.000000    -1.476326    -3.086257    -0.735009    0.846118    10.058473    5.124738    -1.653678    -7.747525    -9.078639    0.000000    0.000000    0.000000    
-35.748161    94.285240    -126.115990    1.389778    3.319499    2.028117    -2.685384    -6.948049    0.477298    1.415258    -7.286835    0.730573    -3.831181    19.915825    -14.356163    16.233500    1.850327    -13.072966    13.512493    -1.748071    -7.472806    -27.447424    8.180816    -10.726157    0.397026    -0.964343    1.133732    12.943018    -0.356683    5.388182    -12.098824    -2.796042    -3.034572    29.860382    7.029187    9.749120    -1.605886    -1.565697    2.945660    -13.933717    -1.131656    -3.213935    -3.528832    -5.120982    4.128110    2.217220    13.972842    4.061786    0.585538    -9.739822    -4.376865    0.000000    0.000000    0.000000    -1.474742    -3.075089    -0.717035    0.850310    10.060660    5.111804    -1.656058    -7.757295    -9.074878    0.000000    0.000000    0.000000    
-35.748898    94.283096    -126.100525    1.389007    3.315708    2.010986    -2.683227    -6.962868    0.479673    1.410481    -7.265929    0.732509    -3.831274    19.913328    -14.354736    16.240297    1.893835    -13.076692    13.514822    -1.755170    -7.469162    -27.454132    8.145283    -10.703896    0.399767    -0.960028    1.143533    12.971027    -0.350233    5.396037    -12.104620    -2.795000    -3.032232    29.866543    6.982126    9.744591    -1.592506    -1.544269    2.926639    -13.970830    -1.112716    -3.190090    -3.527111    -5.115697    4.160205    2.225524    13.986918    4.057532    0.577842    -9.751291    -4.392605    0.000000    0.000000    0.000000    -1.473409    -3.064241    -0.698727    0.854238    10.062024    5.102420    -1.658240    -7.766781    -9.072262    0.000000    0.000000    0.000000    
-35.749477    94.280945    -126.085518    1.388295    3.312380    1.992582    -2.679789    -6.977685    0.482343    1.403408    -7.245900    0.734621    -3.831038    19.909540    -14.352564    16.245090    1.939600    -13.080128    13.518676    -1.761987    -7.463454    -27.460360    8.103994    -10.684353    0.400315    -0.953301    1.157744    12.993542    -0.342069    5.399395    -12.109448    -2.794059    -3.028969    29.874882    6.922332    9.741378    -1.575686    -1.517133    2.904524    -14.015019    -1.088324    -3.163744    -3.525168    -5.111099    4.196106    2.233710    14.000600    4.054131    0.570624    -9.762333    -4.411901    0.000000    0.000000    0.000000    -1.472475    -3.053865    -0.680509    0.858296    10.062547    5.094562    -1.660182    -7.775935    -9.069278    0.000000    0.000000    0.000000    
-35.749878    94.278732    -126.070473    1.387653    3.309286    1.972345    -2.675088    -6.992949    0.485445    1.393957    -7.225960    0.737005    -3.829671    19.903791    -14.349861    16.246943    1.988477    -13.083708    13.524076    -1.769256    -7.456219    -27.466265    8.057705    -10.665990    0.399620    -0.944101    1.176169    13.008789    -0.332196    5.399101    -12.112959    -2.793131    -3.024862    29.885263    6.844111    9.740196    -1.553549    -1.481915    2.877295    -14.065121    -1.056422    -3.133226    -3.523353    -5.106828    4.237066    2.242833    14.014353    4.049571    0.563513    -9.773354    -4.433537    0.000000    0.000000    0.000000    -1.471867    -3.043576    -0.661653    0.862542    10.062430    5.087688    -1.662242    -7.785149    -9.065943    0.000000    0.000000    0.000000    
-35.750088    94.276543    -126.055817    1.387191    3.306402    1.951123    -2.669697    -7.007957    0.488802    1.383039    -7.206805    0.739421    -3.827459    19.896742    -14.346922    16.245508    2.038251    -13.087492    13.530149    -1.777321    -7.448204    -27.471325    8.010633    -10.648027    0.397763    -0.933308    1.197021    13.016535    -0.321428    5.396446    -12.115240    -2.792197    -3.020780    29.897491    6.744719    9.742561    -1.525289    -1.436528    2.843353    -14.118092    -1.015142    -3.097321    -3.521970    -5.102792    4.280874    2.252618    14.027887    4.040432    0.557245    -9.784358    -4.451942    0.000000    0.000000    0.000000    -1.471496    -3.033750    -0.643574    0.866223    10.061883    5.084867    -1.664680    -7.794222    -9.064021    0.000000    0.000000    0.000000    
-35.750244    94.274361    -126.041328    1.386556    3.303340    1.929191    -2.663861    -7.022809    0.492107    1.371630    -7.187911    0.741812    -3.824573    19.890461    -14.344137    16.240795    2.086180    -13.091590    13.536355    -1.786181    -7.440130    -27.475597    7.964935    -10.629311    0.395697    -0.921753    1.219010    13.016828    -0.310287    5.393110    -12.116521    -2.791393    -3.016393    29.910450    6.632602    9.747263    -1.492703    -1.384473    2.804980    -14.171039    -0.967720    -3.058892    -3.520354    -5.098184    4.325834    2.262328    14.041059    4.026137    0.552396    -9.795999    -4.464964    0.000000    0.000000    0.000000    -1.470788    -3.023652    -0.626849    0.869221    10.060764    5.084799    -1.667927    -7.802909    -9.062413    0.000000    0.000000    0.000000    
-35.750465    94.272217    -126.027260    1.385588    3.300122    1.907316    -2.657919    -7.036899    0.495118    1.360090    -7.169743    0.743860    -3.820386    19.884998    -14.342033    16.232126    2.130983    -13.096427    13.543419    -1.795171    -7.431926    -27.479803    7.922956    -10.610257    0.394488    -0.910796    1.240697    13.011147    -0.299979    5.390690    -12.116606    -2.791258    -3.012074    29.921522    6.534264    9.751397    -1.462859    -1.338366    2.770093    -14.216702    -0.925691    -3.025396    -3.518388    -5.093291    4.371178    2.272116    14.053782    4.007589    0.548689    -9.808108    -4.473969    0.000000    0.000000    0.000000    -1.469378    -3.013272    -0.610718    0.871559    10.058917    5.083868    -1.671284    -7.811114    -9.059297    0.000000    0.000000    0.000000    
